<svg width="101" height="51" viewBox="0 0 101 51" fill="none" xmlns="http://www.w3.org/2000/svg">
<path d="M3.08517 29.5165H5.91809V43.4072H3.08517V29.5165Z" fill="white"/>
<path d="M7.56117 38.6479C7.5593 37.6502 7.85345 36.6743 8.4064 35.8438C8.95935 35.0133 9.74624 34.3655 10.6675 33.9824C11.5887 33.5993 12.6029 33.4981 13.5817 33.6916C14.5605 33.8851 15.4599 34.3646 16.166 35.0695C16.8722 35.7743 17.3534 36.6728 17.5487 37.6512C17.7441 38.6296 17.6448 39.644 17.2634 40.566C16.882 41.4879 16.2357 42.276 15.4062 42.8305C14.5768 43.3851 13.6015 43.681 12.6038 43.681C11.9402 43.6886 11.2819 43.5637 10.6673 43.3135C10.0527 43.0634 9.49423 42.6931 9.02459 42.2243C8.55495 41.7556 8.1836 41.1978 7.93231 40.5836C7.68102 39.9695 7.55484 39.3114 7.56117 38.6479ZM14.7945 38.6479C14.7834 38.2172 14.6455 37.7993 14.3981 37.4466C14.1507 37.0938 13.8048 36.8219 13.4036 36.6647C13.0024 36.5075 12.5638 36.4722 12.1427 36.563C11.7215 36.6538 11.3365 36.8668 11.0357 37.1753C10.735 37.4838 10.5319 37.8742 10.4518 38.2976C10.3718 38.7209 10.4184 39.1585 10.5857 39.5555C10.7531 39.9525 11.0338 40.2914 11.3927 40.5297C11.7517 40.768 12.1729 40.8952 12.6038 40.8953C12.8985 40.9036 13.1918 40.8507 13.4651 40.7399C13.7384 40.6291 13.9858 40.4629 14.1917 40.2517C14.3975 40.0405 14.5574 39.789 14.6611 39.513C14.7649 39.2369 14.8103 38.9424 14.7945 38.6479Z" fill="white"/>
<path d="M29.0346 33.8886V42.935C29.0346 46.1362 26.5322 47.4866 24.0015 47.4866C23.1116 47.5528 22.2206 47.3728 21.4261 46.9664C20.6316 46.56 19.9643 45.9428 19.4972 45.1825L21.9335 43.7755C22.1268 44.1651 22.4327 44.4878 22.8115 44.7016C23.1903 44.9154 23.6246 45.0106 24.0582 44.9747C24.3434 45.0223 24.6358 45.0037 24.9128 44.9203C25.1898 44.837 25.4439 44.6912 25.6556 44.4941C25.8672 44.297 26.0308 44.0539 26.1337 43.7836C26.2366 43.5133 26.276 43.223 26.2489 42.935V42.0568C25.9159 42.4666 25.4909 42.7921 25.0086 43.007C24.5263 43.2219 24.0001 43.3202 23.4727 43.2939C22.1904 43.2939 20.9607 42.7845 20.0539 41.8778C19.1472 40.9711 18.6378 39.7413 18.6378 38.459C18.6378 37.1767 19.1472 35.947 20.0539 35.0403C20.9607 34.1336 22.1904 33.6242 23.4727 33.6242C23.9998 33.6001 24.5252 33.6994 25.0072 33.9141C25.4892 34.1289 25.9144 34.4532 26.2489 34.8612V33.9169L29.0346 33.8886ZM26.2489 38.459C26.2678 37.9998 26.1488 37.5454 25.9074 37.1542C25.6659 36.7631 25.313 36.4531 24.894 36.2642C24.475 36.0752 24.009 36.0159 23.556 36.0939C23.103 36.1718 22.6837 36.3835 22.352 36.7016C22.0202 37.0198 21.7912 37.4299 21.6944 37.8792C21.5975 38.3285 21.6373 38.7966 21.8086 39.2231C21.9799 39.6497 22.2748 40.0152 22.6555 40.2728C23.0362 40.5305 23.4852 40.6683 23.9448 40.6687C24.2449 40.6899 24.546 40.6481 24.8288 40.5458C25.1117 40.4435 25.37 40.2832 25.5871 40.075C25.8041 39.8668 25.9752 39.6154 26.0892 39.3371C26.2032 39.0588 26.2576 38.7597 26.2489 38.459Z" fill="white"/>
<path d="M30.6683 38.6479C30.6664 37.6502 30.9606 36.6743 31.5135 35.8438C32.0665 35.0133 32.8534 34.3655 33.7746 33.9824C34.6958 33.5993 35.71 33.4981 36.6888 33.6916C37.6676 33.8851 38.567 34.3646 39.2732 35.0695C39.9793 35.7743 40.4605 36.6728 40.6559 37.6512C40.8512 38.6296 40.7519 39.644 40.3705 40.566C39.9891 41.4879 39.3428 42.276 38.5134 42.8305C37.6839 43.3851 36.7086 43.681 35.7109 43.681C35.0474 43.6886 34.389 43.5637 33.7744 43.3135C33.1598 43.0634 32.6013 42.6931 32.1317 42.2243C31.6621 41.7556 31.2907 41.1978 31.0394 40.5836C30.7881 39.9695 30.6619 39.3114 30.6683 38.6479ZM37.9017 38.6479C37.8905 38.2172 37.7526 37.7993 37.5052 37.4466C37.2578 37.0938 36.9119 36.8219 36.5107 36.6647C36.1096 36.5075 35.671 36.4722 35.2498 36.563C34.8286 36.6538 34.4436 36.8668 34.1428 37.1753C33.8421 37.4838 33.639 37.8742 33.5589 38.2976C33.4789 38.7209 33.5255 39.1585 33.6928 39.5555C33.8602 39.9525 34.1409 40.2914 34.4998 40.5297C34.8588 40.768 35.28 40.8952 35.7109 40.8953C36.0041 40.9009 36.2953 40.8461 36.5664 40.7341C36.8374 40.6221 37.0825 40.4555 37.2863 40.2446C37.4901 40.0338 37.6482 39.7831 37.7509 39.5084C37.8535 39.2337 37.8984 38.9407 37.8828 38.6479H37.9017Z" fill="white"/>
<path d="M42.0661 31.339C42.0661 30.9991 42.1669 30.6668 42.3557 30.3842C42.5446 30.1016 42.813 29.8813 43.127 29.7512C43.4411 29.6211 43.7866 29.5871 44.12 29.6534C44.4534 29.7197 44.7596 29.8834 45 30.1237C45.2404 30.3641 45.404 30.6703 45.4703 31.0037C45.5367 31.3371 45.5026 31.6827 45.3726 31.9967C45.2425 32.3107 45.0222 32.5792 44.7396 32.768C44.4569 32.9568 44.1247 33.0576 43.7847 33.0576C43.3297 33.0552 42.894 32.8733 42.5722 32.5515C42.2504 32.2298 42.0686 31.7941 42.0661 31.339ZM42.3588 33.8886H45.1917V43.4072H42.3588V33.8886Z" fill="white"/>
<path d="M57.5431 38.6479C57.5774 39.2771 57.487 39.9069 57.277 40.501C57.0669 41.0951 56.7415 41.6418 56.3193 42.1096C55.8971 42.5774 55.3866 42.9571 54.8171 43.2268C54.2476 43.4965 53.6304 43.6509 53.001 43.6811C52.4726 43.7064 51.945 43.6156 51.4556 43.4149C50.9661 43.2142 50.5266 42.9086 50.1681 42.5196V47.2411H47.3352V33.8886H50.1681V34.7857C50.5266 34.3967 50.9661 34.0911 51.4556 33.8904C51.945 33.6897 52.4726 33.5989 53.001 33.6242C53.6296 33.6544 54.246 33.8085 54.8148 34.0776C55.3837 34.3468 55.8938 34.7256 56.3158 35.1924C56.7379 35.6592 57.0635 36.2047 57.2741 36.7977C57.4848 37.3907 57.5762 38.0195 57.5431 38.6479ZM54.7102 38.6479C54.699 38.2047 54.558 37.7745 54.3047 37.4106C54.0514 37.0468 53.697 36.7651 53.2853 36.6007C52.8736 36.4362 52.4226 36.3961 51.9884 36.4854C51.5541 36.5746 51.1555 36.7893 50.842 37.1028C50.5285 37.4163 50.3139 37.8148 50.2246 38.2491C50.1354 38.6834 50.1755 39.1343 50.3399 39.546C50.5044 39.9577 50.786 40.3122 51.1499 40.5654C51.5138 40.8187 51.944 40.9597 52.3872 40.9709C52.6965 40.9906 53.0064 40.9438 53.2962 40.8338C53.5859 40.7237 53.8487 40.5529 54.067 40.3329C54.2852 40.1128 54.4539 39.8486 54.5616 39.558C54.6692 39.2674 54.7135 38.9571 54.6913 38.6479H54.7102Z" fill="white"/>
<path d="M66.363 40.5554C66.363 42.7462 64.4744 43.681 62.3969 43.681C61.567 43.7545 60.7341 43.5779 60.0054 43.174C59.2768 42.7701 58.6856 42.1574 58.3081 41.4147L60.7822 40.0077C60.8826 40.3512 61.0976 40.65 61.3913 40.8544C61.6851 41.0588 62.0399 41.1566 62.3969 41.1314C63.0863 41.1314 63.4262 40.9142 63.4262 40.5365C63.4262 39.4883 58.7047 40.0455 58.7047 36.7593C58.7047 34.6818 60.4611 33.6336 62.4819 33.6336C63.2276 33.611 63.9658 33.7881 64.62 34.1468C65.2742 34.5054 65.8205 35.0325 66.2025 35.6733L63.719 36.9765C63.6093 36.7271 63.4295 36.5149 63.2015 36.3657C62.9735 36.2165 62.7072 36.1367 62.4347 36.136C61.9437 36.136 61.6415 36.3249 61.6415 36.6743C61.6793 37.7602 66.363 37.0331 66.363 40.5554Z" fill="white"/>
<path d="M76.7881 33.8886V43.4072H73.9551V42.5196C73.6256 42.914 73.2074 43.2248 72.7347 43.4267C72.2621 43.6286 71.7483 43.7157 71.2355 43.6811C69.3469 43.6811 67.6755 42.3118 67.6755 39.7339V33.8886H70.5084V39.3184C70.4835 39.5498 70.5105 39.7838 70.5873 40.0035C70.6641 40.2232 70.7888 40.423 70.9525 40.5885C71.1161 40.754 71.3146 40.8809 71.5334 40.9601C71.7522 41.0394 71.986 41.0688 72.2176 41.0465C73.2564 41.0465 73.9835 40.4421 73.9835 39.0918V33.8886H76.7881Z" fill="white"/>
<path d="M93.1623 37.5713V43.4071H90.3293V37.8169C90.3293 36.8726 89.8666 36.2493 88.9601 36.2493C88.0536 36.2493 87.4681 36.9198 87.4681 38.0435V43.4071H84.6352V37.8169C84.6352 36.8726 84.1819 36.2493 83.2659 36.2493C82.35 36.2493 81.7834 36.9198 81.7834 38.0435V43.4071H78.9505V33.8886H81.7834V34.7668C82.0795 34.3789 82.4678 34.0712 82.9131 33.8717C83.3584 33.6721 83.8465 33.587 84.333 33.6242C84.8216 33.6004 85.3081 33.7037 85.7449 33.9237C86.1818 34.1438 86.5542 34.4733 86.826 34.8801C87.142 34.4548 87.5607 34.1165 88.0429 33.8969C88.5251 33.6773 89.0551 33.5834 89.5833 33.6242C91.7364 33.6242 93.1623 35.1917 93.1623 37.5713Z" fill="white"/>
<path d="M95.5798 33.832C96.748 33.832 97.695 32.8849 97.695 31.7167C97.695 30.5485 96.748 29.6015 95.5798 29.6015C94.4116 29.6015 93.4645 30.5485 93.4645 31.7167C93.4645 32.8849 94.4116 33.832 95.5798 33.832Z" fill="white"/>
<path d="M35.1443 22.3115C40.6151 22.3115 45.05 17.8765 45.05 12.4057C45.05 6.93493 40.6151 2.49997 35.1443 2.49997C29.6735 2.49997 25.2385 6.93493 25.2385 12.4057C25.2385 17.8765 29.6735 22.3115 35.1443 22.3115Z" fill="white"/>
<path d="M57.2882 22.3115C62.759 22.3115 67.1939 17.8765 67.1939 12.4057C67.1939 6.93493 62.759 2.49997 57.2882 2.49997C51.8174 2.49997 47.3824 6.93493 47.3824 12.4057C47.3824 17.8765 51.8174 22.3115 57.2882 22.3115Z" fill="white"/>
<path d="M22.9061 2.49997H3.10406V22.302H22.9061V2.49997Z" fill="white"/>
</svg>
