<svg width="161" height="47" viewBox="0 0 161 47" fill="none" xmlns="http://www.w3.org/2000/svg">
<path fill-rule="evenodd" clip-rule="evenodd" d="M27.1046 4.22414C25.6108 2.73101 23.1895 2.7315 21.6964 4.22525L9.23505 16.6917L9.22443 16.6886L9.18505 16.6928C9.20127 16.7006 9.21719 16.7083 9.23279 16.7161C7.04681 16.9451 6.11933 17.602 6.10883 18.4456C6.11253 18.7594 6.24128 19.0983 6.47777 19.4501L6.4664 19.4615C8.45368 22.4588 18.2986 26.4127 25.2636 23.7338C20.0436 26.3438 7.75025 26.8611 4.1395 21.7935C3.35536 22.6418 3.02728 23.7566 3.15083 24.8279C4.10469 30.0853 14.7689 31.5196 25.4332 23.9023L27.7409 26.21C24.8693 29.1602 20.6276 46.2967 26.9303 43.6803C27.0798 43.5788 27.2067 43.488 27.3793 43.3574L27.6602 43.0922C27.644 43.0962 27.6279 43.1 27.6119 43.1038L44.4919 27.1681C46.0592 25.6884 46.0947 23.2065 44.5702 21.6826L27.1046 4.22414ZM25.2664 9.41743L25.8433 7.10974L26.4202 9.41743L28.151 9.99436L26.4202 10.5713L25.8433 12.879L25.2664 10.5713L23.5356 9.99436L25.2664 9.41743ZM18.1255 16.9508L18.5101 15.4123L18.8947 16.9508L20.0486 17.3354L18.8947 17.72L18.5101 19.2585L18.1255 17.72L16.9717 17.3354L18.1255 16.9508ZM31.5211 29.9277L31.1365 31.4661L29.9827 31.8508L31.1365 32.2354L31.5211 33.7738L31.9057 32.2354L33.0596 31.8508L31.9057 31.4661L31.5211 29.9277Z" fill="white"/>
<path d="M55.398 12.7755H51.8159V28.9387H61.7323V25.7716H55.398V12.7755Z" fill="white"/>
<path d="M62.0744 23.4563C62.0744 26.9074 64.3897 29.2008 67.8844 29.2008C71.3574 29.2008 73.6726 26.9074 73.6726 23.4563C73.6726 20.0052 71.3574 17.69 67.8844 17.69C64.3897 17.69 62.0744 20.0052 62.0744 23.4563ZM65.46 23.4345C65.46 21.7963 66.421 20.7042 67.8844 20.7042C69.326 20.7042 70.2871 21.7963 70.2871 23.4345C70.2871 25.0945 69.326 26.1866 67.8844 26.1866C66.421 26.1866 65.46 25.0945 65.46 23.4345Z" fill="white"/>
<path d="M74.2137 23.2816C74.2137 26.5797 76.3543 28.8076 79.3903 28.8076C80.8538 28.8076 82.1206 28.2834 82.754 27.4316V28.9387C82.754 30.4458 81.8148 31.4506 80.1548 31.4506C78.6695 31.4506 77.643 30.7516 77.5774 29.5066H74.1701C74.4758 32.499 76.7911 34.5085 79.9582 34.5085C83.6933 34.5085 86.0522 32.084 86.0522 28.2397V18.0176H83.0161L82.8414 19.1315C82.2298 18.236 80.9411 17.6463 79.4559 17.6463C76.398 17.6463 74.2137 19.9397 74.2137 23.2816ZM77.6211 23.1942C77.6211 21.6216 78.6696 20.5731 80.0019 20.5731C81.5527 20.5731 82.6885 21.5997 82.6885 23.1942C82.6885 24.7887 81.5746 25.8808 80.0238 25.8808C78.6914 25.8808 77.6211 24.7887 77.6211 23.1942Z" fill="white"/>
<path d="M87.0326 23.4563C87.0326 26.9074 89.3478 29.2008 92.8426 29.2008C96.3155 29.2008 98.6308 26.9074 98.6308 23.4563C98.6308 20.0052 96.3155 17.69 92.8426 17.69C89.3478 17.69 87.0326 20.0052 87.0326 23.4563ZM90.4181 23.4345C90.4181 21.7963 91.3792 20.7042 92.8426 20.7042C94.2842 20.7042 95.2452 21.7963 95.2452 23.4345C95.2452 25.0945 94.2842 26.1866 92.8426 26.1866C91.3792 26.1866 90.4181 25.0945 90.4181 23.4345Z" fill="white"/>
<path d="M101.531 16.3139C102.579 16.3139 103.431 15.4621 103.431 14.3918C103.431 13.3215 102.579 12.4915 101.531 12.4915C100.461 12.4915 99.6087 13.3215 99.6087 14.3918C99.6087 15.4621 100.461 16.3139 101.531 16.3139ZM99.8271 28.9387H103.213V18.0176H99.8271V28.9387Z" fill="white"/>
<path d="M105.183 34.1808H108.503V27.8466C109.137 28.6766 110.578 29.2445 112.086 29.2445C115.34 29.2445 117.306 26.7545 117.218 23.3034C117.131 19.7868 115.1 17.6681 112.064 17.6681C110.513 17.6681 109.05 18.3452 108.438 19.35L108.263 18.0176H105.183V34.1808ZM108.569 23.4781C108.569 21.84 109.661 20.7479 111.234 20.7479C112.828 20.7479 113.833 21.8618 113.833 23.4781C113.833 25.0945 112.828 26.2084 111.234 26.2084C109.661 26.2084 108.569 25.1163 108.569 23.4781Z" fill="white"/>
<path d="M117.577 25.4876C117.664 27.6937 119.412 29.2226 122.164 29.2226C124.807 29.2226 126.642 27.8247 126.642 25.575C126.642 23.9587 125.68 22.8884 123.889 22.4516L121.945 21.971C121.246 21.7963 120.81 21.6216 120.81 21.0537C120.81 20.4858 121.268 20.1144 121.945 20.1144C122.71 20.1144 123.212 20.6168 123.19 21.3595H126.227C126.139 19.0879 124.414 17.6681 122.011 17.6681C119.586 17.6681 117.774 19.1097 117.774 21.2939C117.774 22.7574 118.582 23.9587 120.744 24.5266L122.666 25.0289C123.234 25.1818 123.474 25.4439 123.474 25.8153C123.474 26.3613 122.972 26.7108 122.12 26.7108C121.137 26.7108 120.613 26.2521 120.613 25.4876H117.577Z" fill="white"/>
<path d="M131.79 29.2226C133.123 29.2226 134.455 28.6111 135.132 27.7155L135.351 28.9387H138.518V18.0176H135.154V23.6966C135.154 25.3347 134.673 26.2303 133.123 26.2303C131.921 26.2303 131.135 25.6842 131.135 23.6529V18.0176H127.771V24.876C127.771 27.4753 129.213 29.2226 131.79 29.2226Z" fill="white"/>
<path d="M143.852 28.9387V22.9758C143.852 21.141 144.835 20.6168 145.796 20.6168C146.866 20.6168 147.565 21.2721 147.565 22.6263V28.9387H150.885V22.9758C150.885 21.1192 151.846 20.595 152.807 20.595C153.877 20.595 154.598 21.2502 154.598 22.6263V28.9387H157.875V21.7963C157.875 19.3063 156.564 17.6463 153.746 17.6463C152.174 17.6463 150.885 18.4108 150.317 19.5902C149.662 18.4108 148.526 17.6463 146.713 17.6463C145.512 17.6463 144.398 18.1923 143.743 19.066L143.612 18.0176H140.466V28.9387H143.852Z" fill="white"/>
<path fill-rule="evenodd" clip-rule="evenodd" d="M45.7918 5.75128C42.1831 5.75128 38.7608 7.35419 36.4505 10.1265L28.2315 19.9894L32.9775 12.8703L25.0995 16.2466C24.099 16.6754 23.848 17.9789 24.6176 18.7486L27.1528 21.2837L25.8584 22.837L28.7061 25.6846L30.2593 24.3902L32.7945 26.9254C33.5641 27.695 34.8677 27.444 35.2964 26.4436L38.6727 18.5656L31.5537 23.3116L41.4166 15.0925C44.1889 12.7823 45.7918 9.36 45.7918 5.75128ZM37.9609 13.5824C38.7472 14.3687 40.0221 14.3687 40.8085 13.5824C41.5948 12.796 41.5948 11.5211 40.8085 10.7348C40.0221 9.94841 38.7472 9.94841 37.9609 10.7348C37.1745 11.5211 37.1745 12.796 37.9609 13.5824Z" fill="#A3A2FF"/>
<path opacity="0.6" d="M4.04793 21.6609C5.93339 28.1207 17.3966 27.7839 25.2614 23.7348C19.995 26.3664 7.53695 26.869 4.04793 21.6609Z" fill="#424242"/>
<path opacity="0.6" d="M26.9303 43.6803C21.6195 45.8849 23.7955 34.0645 26.3299 28.5245C24.4825 33.4487 22.9055 44.3038 27.6602 43.0922L27.3793 43.3574C27.2067 43.488 27.0798 43.5788 26.9303 43.6803Z" fill="#424242"/>
</svg>
