<svg width="88" height="55" viewBox="0 0 88 55" fill="none" xmlns="http://www.w3.org/2000/svg">
<g clip-path="url(#clip0_146_4478)">
<path d="M81.9404 6.76064C81.9404 6.82477 81.9404 6.90493 81.9241 6.95303C81.8426 7.57829 81.8426 8.20356 81.8915 8.84486C81.9241 9.00518 81.9567 9.16551 82.0872 9.29377C82.2991 9.53424 82.6251 9.48616 82.7556 9.19757C82.8209 9.05328 82.8209 8.90898 82.7882 8.76469C82.6251 8.15546 82.5926 7.51417 82.5763 6.88889C82.5763 6.85683 82.5763 6.80873 82.5763 6.76064C82.7556 6.74461 82.9187 6.72857 83.0653 6.72857C83.1796 6.71254 83.2774 6.69651 83.3589 6.64841C83.6034 6.52016 83.6034 6.24761 83.3425 6.11934C83.2447 6.07124 83.1143 6.05521 83.0002 6.05521C82.5926 6.07124 82.185 6.07124 81.7774 6.07124C81.6307 6.07124 81.4839 6.08728 81.3371 6.10331C81.2556 6.11934 81.1578 6.11934 81.0927 6.16744C80.9785 6.21553 80.9133 6.29569 80.9133 6.40792C80.9296 6.52016 80.9785 6.58428 81.0927 6.63238C81.1578 6.68048 81.2393 6.69651 81.3209 6.69651C81.5165 6.71254 81.7285 6.74461 81.9404 6.76064ZM86.4239 7.49813C86.4239 7.51417 86.4402 7.53019 86.4402 7.53019C86.5054 7.96307 86.5707 8.37992 86.6195 8.79676C86.6359 8.94104 86.6522 9.06931 86.75 9.18153C86.9619 9.45408 87.2881 9.42202 87.4347 9.13344C87.5 8.98914 87.5163 8.84486 87.4837 8.68453C87.3859 8.20356 87.3369 7.72258 87.2391 7.25764C87.1738 6.96906 87.0924 6.69651 87.0109 6.43999C86.9619 6.27967 86.8478 6.16743 86.6522 6.15141C86.4566 6.11934 86.3098 6.21553 86.2283 6.35983C86.1305 6.48808 86.0489 6.61634 85.9837 6.76064C85.8696 7.01716 85.7718 7.27368 85.6414 7.51417C85.625 7.57829 85.6087 7.62639 85.5762 7.67448C85.5599 7.64242 85.5436 7.62639 85.5436 7.62639C85.3316 7.22558 85.1359 6.82477 84.924 6.43999C84.8913 6.40792 84.8751 6.37586 84.8588 6.34379C84.761 6.19951 84.6469 6.11934 84.4675 6.11934C84.3045 6.13537 84.174 6.23157 84.0926 6.37586C84.0599 6.43999 84.0599 6.48808 84.0436 6.55222C83.9783 7.06526 83.8968 7.57829 83.8317 8.09133C83.799 8.37992 83.7827 8.66849 83.7827 8.95708C83.7664 9.02121 83.7827 9.10137 83.8153 9.16551C83.848 9.29376 83.9458 9.37393 84.0762 9.38996C84.2392 9.40599 84.3533 9.35789 84.4023 9.22963C84.4511 9.13344 84.4675 9.05328 84.4838 8.97312C84.5491 8.68453 84.5979 8.41198 84.6469 8.13943C84.6794 7.97911 84.6957 7.85084 84.7447 7.67448C84.7772 7.73862 84.8098 7.78672 84.8425 7.83481C84.9892 8.02721 85.1359 8.21959 85.3153 8.37992C85.4946 8.50817 85.6414 8.49214 85.7881 8.34784C85.8207 8.31578 85.837 8.29976 85.8696 8.26768C86.0164 8.04323 86.1957 7.81878 86.3424 7.59432C86.3751 7.56226 86.3913 7.53019 86.4239 7.49813Z" fill="white"/>
<path d="M48.858 7.07564C48.7446 7.38033 48.723 7.59984 48.7753 7.78229C48.8331 8.03039 48.9831 8.11161 49.1867 8.04851C51.1017 7.58285 55.3009 8.9046 56.8556 9.27299C57.2223 9.35034 57.5206 8.8849 57.2704 8.4676C56.9052 8.06347 52.7078 6.33326 51.1063 6.23892C50.4785 6.20404 49.3562 6.04574 48.858 7.07564Z" fill="white"/>
<path d="M65.2694 1.47477C65.4734 1.59061 65.5875 1.70111 65.6438 1.82457C65.7277 1.98652 65.6835 2.09857 65.5425 2.15575C64.2767 2.76327 62.5923 5.37878 61.9123 6.28085C61.7475 6.48836 61.3673 6.36777 61.3099 6.02652C61.3217 5.64067 62.8148 2.80226 63.6482 2.02917C63.9757 1.72733 64.5167 1.13509 65.2694 1.47477Z" fill="white"/>
<path d="M55.1886 0.187245C55.4338 0.0055236 55.6886 -0.058157 55.8187 0.059939C57.7286 1.66613 58.7414 4.20966 59.3686 6.53821C59.3922 6.59246 59.3937 6.67031 59.3748 6.75152C59.367 6.82094 59.3154 6.89426 59.2335 6.951C59.146 7.01364 59.0707 7.03271 59.0352 6.97874C58.1982 5.85915 53.4173 1.50303 55.1886 0.187245Z" fill="white"/>
<path d="M14.7444 28.0345C15.2021 27.6994 15.6998 27.4204 16.2264 27.2039C16.7773 27.049 17.3646 27.0746 17.8994 27.2771C18.4341 27.4796 18.8873 27.8478 19.1903 28.326C19.4614 28.803 19.5674 29.3538 19.4926 29.8953C19.4178 30.4366 19.1661 30.9395 18.7753 31.3281C18.4725 31.6431 18.1286 31.9175 17.7528 32.1443C16.0782 33.2081 14.3887 34.2136 12.6992 35.2775C12.3535 35.5438 11.9868 35.7826 11.6025 35.9916C11.0181 36.2783 10.3501 36.355 9.71415 36.2086C9.0782 36.0624 8.51427 35.702 8.11986 35.1901C7.82502 34.8276 7.57618 34.4313 7.37885 34.0096C5.7783 30.7015 4.11848 27.4079 2.5772 24.0414C1.86584 22.5841 1.28786 20.9081 0.724706 19.2905C0.481058 18.8205 0.433479 18.2756 0.5921 17.7716C0.750722 17.2676 1.10303 16.8444 1.57408 16.5919C2.04513 16.3394 2.59776 16.2776 3.11444 16.4196C3.63112 16.5616 4.07109 16.8963 4.34076 17.3523C5.16969 18.4355 5.90346 19.5861 6.53412 20.7916C8.13467 23.7063 9.66114 26.6209 11.2024 29.4481C11.2922 29.6044 11.3911 29.7551 11.4988 29.8999C12.6589 29.4203 13.75 28.7931 14.7444 28.0345Z" fill="white"/>
<path d="M31.2932 27.0178C27.6327 31.2294 21.4972 30.1655 18.4147 24.7443C16.2213 20.8969 15.836 14.5429 20.6081 10.5352C21.6271 9.69618 22.8456 9.12461 24.15 8.87384C25.7493 8.64838 27.3802 8.92583 28.8094 9.66655C30.2387 10.4073 31.3933 11.5733 32.1084 12.9981C34.7166 17.6616 34.3461 23.6075 31.2932 27.0178ZM29.8112 17.1953C29.4223 16.0493 28.6422 15.0709 27.603 14.4263C27.015 14.0141 26.3005 13.8138 25.5799 13.8589C24.8591 13.904 24.1763 14.1919 23.6461 14.674C21.5269 16.5249 21.0822 20.9115 22.6235 23.5201C22.82 23.9455 23.1085 24.3235 23.469 24.6278C23.8296 24.932 24.2534 25.1551 24.7108 25.2814C25.1681 25.4077 25.648 25.4342 26.1169 25.3591C26.5858 25.2839 27.0323 25.1089 27.4253 24.8463C28.574 23.9704 29.4168 22.7644 29.8364 21.3959C30.2561 20.0272 30.2318 18.5641 29.7668 17.2099L29.8112 17.1953Z" fill="white"/>
<path d="M46.2316 19.0315C45.8569 19.1107 45.4697 19.1155 45.093 19.0454C44.7164 18.9752 44.3577 18.8319 44.0383 18.6235C43.7588 18.4662 43.5182 18.2501 43.3337 17.9905C43.1494 17.7309 43.0259 17.4344 42.9721 17.1221C42.9181 16.81 42.9354 16.49 43.0223 16.1851C43.1093 15.8802 43.264 15.5981 43.4752 15.359C43.8431 14.8785 44.3653 14.5345 44.9571 14.3826C46.5024 13.9416 48.0931 13.6727 49.6995 13.5811C50.0525 13.5407 50.4101 13.5701 50.7512 13.6675C51.0925 13.765 51.4104 13.9284 51.6866 14.1484C51.9626 14.3682 52.1913 14.6402 52.3591 14.9482C52.5268 15.2562 52.6303 15.5941 52.6635 15.942C53.1266 17.6507 53.1773 19.4424 52.8116 21.1739C51.4779 26.77 46.8837 28.6936 41.7263 26.9011C40.2787 26.4219 39.0093 25.5289 38.0807 24.3362C36.842 22.9 35.9638 21.1979 35.5168 19.3667C35.1546 17.7361 35.1943 16.0441 35.6326 14.4317C36.0708 12.8194 36.895 11.3334 38.0362 10.098C39.1192 8.75534 40.5249 7.69862 42.1265 7.02306C43.1386 6.4745 44.3229 6.31852 45.4462 6.58586C45.701 6.65521 45.9323 6.79034 46.1161 6.97722C46.2999 7.16412 46.4296 7.39596 46.4916 7.64872C46.5536 7.90147 46.5456 8.16594 46.4687 8.41469C46.3917 8.66342 46.2485 8.88739 46.0538 9.06334C45.6837 9.39277 45.2817 9.68565 44.8534 9.93774C43.5358 10.7628 42.3893 11.826 41.4744 13.071C40.8747 13.8766 40.4617 14.8017 40.2646 15.7811C40.0674 16.7605 40.0909 17.7705 40.3333 18.7401C40.6694 20.0621 41.4153 21.2487 42.4673 22.1356C45.7277 25.0504 49.9662 22.2376 49.2252 18.2591C48.1435 18.5215 47.1949 18.7984 46.2316 19.0315Z" fill="white"/>
<path d="M66.1498 27.2509C61.3334 30.1656 55.85 27.2509 54.6495 21.1301C53.7752 16.7581 55.435 10.6373 61.2445 8.30553C62.4805 7.8201 63.8212 7.64966 65.1421 7.81003C66.7291 8.09572 68.185 8.86401 69.3043 10.0066C70.4236 11.1492 71.1502 12.6084 71.3813 14.1786C72.3594 19.3812 70.1364 24.9337 66.1498 27.2509ZM67.8246 17.443C67.8231 16.2324 67.3876 15.0609 66.5945 14.1349C66.1706 13.5621 65.5577 13.1517 64.8605 12.9736C64.1631 12.7956 63.4247 12.8609 62.7709 13.1585C60.1626 14.266 58.3249 18.2882 58.9918 21.2467C59.0428 21.711 59.1962 22.1587 59.4414 22.5586C59.6866 22.9585 60.0177 23.3009 60.4116 23.5619C60.8053 23.8227 61.2523 23.996 61.7213 24.0694C62.1903 24.1426 62.6699 24.1144 63.1266 23.9865C64.5053 23.5129 65.699 22.6277 66.5412 21.4546C67.3835 20.2815 67.8322 18.879 67.8246 17.443Z" fill="white"/>
<path d="M76.252 28.4751C76.1793 29.0085 75.8942 29.4916 75.4592 29.8183C75.0242 30.1448 74.4751 30.2881 73.9327 30.2166C73.3904 30.1451 72.8991 29.8646 72.567 29.4369C72.2348 29.0093 72.0891 28.4693 72.1618 27.9359C72.2345 27.4025 72.5197 26.9194 72.9546 26.5928C73.3896 26.2661 73.9387 26.1229 74.4811 26.1944C75.0235 26.2659 75.5148 26.5463 75.847 26.974C76.1791 27.4018 76.3249 27.9418 76.252 28.4751ZM74.9627 8.8156C75.2446 8.39228 75.6581 8.06992 76.1416 7.89658C76.6249 7.72324 77.1524 7.70822 77.6452 7.85376C78.1462 7.97702 78.5887 8.26578 78.8991 8.67169C79.2093 9.07762 79.3683 9.57603 79.3495 10.0835C79.2841 10.8974 79.1603 11.7059 78.979 12.5026C78.4899 15.1988 78.0157 17.8948 77.497 20.5618C77.2599 21.6256 76.9487 22.6458 76.6077 23.7241C76.4892 24.0613 76.2911 24.3659 76.0298 24.6131C75.8674 24.7991 75.6599 24.9418 75.4265 25.0279C75.1931 25.1141 74.9414 25.141 74.6947 25.1061C74.448 25.0713 74.2141 24.9758 74.0149 24.8285C73.8157 24.6811 73.6575 24.4868 73.5549 24.2634C73.3787 23.8626 73.283 23.432 73.2733 22.9955C73.2733 21.1884 73.2733 19.3668 73.3919 17.545C73.5933 14.9453 73.9895 12.3636 74.5774 9.82116C74.6466 9.48053 74.777 9.1548 74.9627 8.85932V8.8156Z" fill="white"/>
<path fill-rule="evenodd" clip-rule="evenodd" d="M8.48301 40.186C8.30803 40.5701 8.26005 40.9984 8.34555 41.4105C8.40244 41.9538 8.52739 42.4881 8.71754 43.0014C8.95495 43.6299 9.22061 44.2514 9.54818 45.0174C9.62351 45.1936 9.70223 45.3776 9.78461 45.5713C10.2263 46.609 10.7806 47.9353 11.5199 49.8546C11.7292 50.3999 11.915 50.9496 12.1021 51.5031C12.1777 51.7268 12.2536 51.9511 12.3312 52.176C12.6096 52.9755 13.0885 53.6938 13.7234 54.263C13.993 54.5759 14.3505 54.8039 14.7515 54.9179C15.1603 55.0341 15.595 55.0268 15.9994 54.8968C16.4039 54.7666 16.7591 54.5199 17.0189 54.1885C17.2737 53.8636 17.4252 53.4721 17.4547 53.0631C17.62 52.2664 17.5636 51.4403 17.2911 50.6721C16.8587 49.3968 16.3662 48.1195 15.7982 46.8703L15.7956 46.8648C14.8612 44.9103 13.9114 42.9693 12.9167 41.0275L12.9093 41.0139C12.6181 40.508 12.2396 40.0558 11.7909 39.6775C11.4997 39.3399 11.0979 39.1121 10.6542 39.0336C10.201 38.9535 9.73366 39.0343 9.33553 39.2616C8.95889 39.4731 8.66033 39.7968 8.48301 40.186Z" fill="white"/>
<path fill-rule="evenodd" clip-rule="evenodd" d="M22.7543 35.3733C21.2892 35.0001 19.7591 34.9458 18.2706 35.214C17.1178 35.3256 15.9839 35.5871 15.1966 36.1051C14.7961 36.3688 14.4724 36.7073 14.2923 37.1375C14.1112 37.5701 14.0881 38.0649 14.2365 38.6161C14.5074 39.6259 14.8593 40.6076 15.2099 41.5863L15.2667 41.7448L15.268 41.7483C16.3237 44.5913 17.3895 47.4246 18.4649 50.2483C18.5903 50.6933 18.7677 51.1225 18.9934 51.5274L18.9976 51.5349C19.2958 52.0379 19.6782 52.4878 20.1287 52.8656C20.3541 53.0734 20.6327 53.2171 20.9348 53.2814C21.24 53.3461 21.5573 53.3274 21.8522 53.2269C22.1472 53.1265 22.4085 52.9484 22.6076 52.7119C22.8035 52.4793 22.9317 52.199 22.9788 51.9008C23.1732 51.0905 23.111 50.2411 22.8002 49.4666C22.7033 49.206 22.6272 48.9396 22.5471 48.6593C22.5204 48.5658 22.4933 48.4706 22.4647 48.3738C24.9264 47.4275 27.5457 46.1551 28.4668 43.1951C28.8275 42.1723 28.8576 41.0646 28.5528 40.0241C28.2478 38.9825 27.622 38.0593 26.7617 37.3815C25.5908 36.4328 24.2231 35.7473 22.7543 35.3733ZM18.6932 39.0039C18.7417 38.9901 18.7905 38.9774 18.8395 38.9655C20.4422 38.7178 22.0819 39.0479 23.4567 39.8949C24.0626 40.3093 24.3108 40.7696 24.3534 41.2126C24.3974 41.6688 24.2288 42.163 23.89 42.6381C23.2498 43.5356 22.0815 44.254 21.0262 44.3879C20.2569 42.6456 19.4756 40.8329 18.6932 39.0039Z" fill="white"/>
<path d="M32.5217 32.1841C34.2664 31.3917 36.4276 31.2549 38.1188 31.812C38.5447 31.934 38.9142 32.1979 39.1642 32.5585C39.4125 32.9169 39.5271 33.3487 39.4888 33.7805C39.4863 34.0607 39.4163 34.3365 39.2847 34.5852C39.1507 34.8385 38.9567 35.0562 38.7191 35.2202C38.4815 35.3841 38.2072 35.4895 37.9194 35.5271C37.6316 35.5649 37.3389 35.5339 37.0659 35.4367L37.0451 35.4294L37.0256 35.4192C36.8859 35.3474 36.7375 35.2932 36.584 35.258L36.5743 35.2559C35.3846 34.9451 34.2625 35.46 33.8526 36.0926C33.6571 36.3942 33.6328 36.6987 33.7956 36.9757C33.97 37.2724 34.3977 37.6052 35.2631 37.8425C35.5011 37.9067 35.7451 37.9687 35.9925 38.0317C36.6768 38.206 37.388 38.387 38.0757 38.6379L38.0783 38.6389C41.2508 39.8259 42.4321 42.2842 42.0277 44.5965C41.6276 46.8831 39.6857 48.9641 36.7653 49.455C35.7027 49.6866 34.5968 49.6415 33.5571 49.3241C32.5149 49.0057 31.5754 48.4249 30.8321 47.6389L30.8127 47.6184C30.578 47.3222 30.4202 46.9744 30.3502 46.6052C30.2858 46.2721 30.3198 45.9279 30.4478 45.613C30.575 45.3 30.7903 45.0291 31.0681 44.8317C31.3615 44.608 31.7152 44.4737 32.0855 44.4457C32.4545 44.4179 32.8237 44.4967 33.1477 44.6725C33.4714 44.8262 33.7724 45.0224 34.0426 45.2556L34.0477 45.2599C34.5257 45.6897 35.104 45.8017 35.6586 45.698C36.2212 45.5927 36.7503 45.2654 37.0906 44.831C37.4286 44.3994 37.5644 43.8866 37.4033 43.3889C37.2412 42.8875 36.7539 42.3257 35.6832 41.8561C35.4033 41.7392 35.1131 41.645 34.8112 41.5532C34.7298 41.5285 34.647 41.5039 34.5632 41.4789C34.34 41.4122 34.1103 41.3436 33.8851 41.268C33.73 41.216 33.5762 41.1667 33.4238 41.1179C33.0073 40.9845 32.6013 40.8545 32.2105 40.6801C31.36 40.3954 30.6252 39.8486 30.1155 39.1207C29.6037 38.39 29.3462 37.5161 29.3813 36.6296C29.384 34.4692 30.7677 32.9809 32.5217 32.1841Z" fill="white"/>
<path d="M54.6412 31.954C54.3029 31.7915 53.9288 31.7144 53.5528 31.7295C53.1765 31.7447 52.8101 31.8517 52.4866 32.0411C52.1651 32.2291 51.8959 32.4924 51.703 32.8075C51.5261 33.0729 51.4037 33.3696 51.3427 33.6812C51.2817 33.9926 51.2832 34.3126 51.3469 34.6232C51.4099 35.0225 51.4798 35.4107 51.5488 35.7936C51.663 36.4272 51.7741 37.0466 51.8474 37.6781L51.8502 37.6941C52.0171 38.6845 52.1044 39.6861 52.1123 40.6899L52.113 40.7041C52.1701 41.7881 51.7945 42.851 51.0668 43.6672L51.0552 43.6817C50.8185 43.9801 50.5019 44.2079 50.1409 44.3395C49.7799 44.4711 49.3889 44.5014 49.0115 44.4269C48.634 44.3524 48.2852 44.1761 48.0038 43.9177C47.7224 43.6594 47.5194 43.3281 47.4181 42.963C47.2019 42.1934 47.0767 41.4017 47.0449 40.604L47.4143 34.8211C47.4197 34.7456 47.426 34.6681 47.4323 34.5899C47.4463 34.4142 47.4608 34.2354 47.4667 34.0685C47.4754 33.823 47.468 33.5705 47.4098 33.3315C47.3503 33.0872 47.2371 32.8549 47.0362 32.657C46.8373 32.4611 46.5689 32.3166 46.2311 32.2182C45.6202 32.0444 45.1037 32.0499 44.6733 32.2295C44.2426 32.4091 43.9476 32.7426 43.7388 33.1279C43.5316 33.5099 43.3985 33.9621 43.2978 34.4151C43.2231 34.7512 43.1631 35.1041 43.106 35.44C43.0863 35.5557 43.067 35.6694 43.0475 35.7797L43.047 35.783C42.7418 37.625 42.6509 39.4952 42.7762 41.3575C42.7996 42.3639 43.013 43.3572 43.4057 44.2869C43.8488 45.4864 44.6513 46.5256 45.7073 47.2675C46.7656 48.0109 48.0285 48.4205 49.3288 48.4421C50.6291 48.4637 51.9053 48.0964 52.9886 47.3887C54.0702 46.6821 54.9083 45.6694 55.3923 44.4845C56.0693 42.9751 56.3872 41.3336 56.3216 39.6851C56.2818 38.4816 56.2152 37.2689 56.149 36.0622C56.1164 35.4704 56.084 34.8797 56.0549 34.2927C56.0402 33.7041 55.8428 33.134 55.4891 32.6589C55.2703 32.3585 54.9789 32.1162 54.6412 31.954Z" fill="white"/>
<path d="M66.6152 41.0216C66.5809 41.0645 66.5447 41.1089 66.5069 41.155C66.2318 39.594 65.9767 38.0335 65.7213 36.4706C65.6297 35.9099 65.5376 35.3468 65.445 34.7853L65.4346 34.7226L65.4008 34.6685C65.337 34.5666 65.3307 34.4668 65.3307 34.2538V34.2291L65.3268 34.2048C65.2577 33.7649 65.0554 33.3555 64.7463 33.0303C64.4381 32.7059 64.0377 32.4801 63.5974 32.3821C63.1578 32.2755 62.6958 32.299 62.2696 32.4498C61.8446 32.6001 61.4741 32.8704 61.2044 33.2266C60.9802 33.5 60.7964 33.8033 60.6587 34.1273C60.3461 34.8253 60.0308 35.525 59.7146 36.2266L59.7091 36.2388C58.9198 37.9904 58.1251 39.7538 57.3535 41.531L57.3512 41.5368C56.8775 42.6891 56.4865 43.9034 56.0969 45.1139C56.0191 45.3555 55.9413 45.597 55.8628 45.8379C55.7222 46.2199 55.6606 46.6256 55.6818 47.0313C55.6562 47.3944 55.7445 47.7566 55.9352 48.069C56.1296 48.3878 56.4208 48.6385 56.7676 48.7861C57.1353 48.9446 57.5463 48.9783 57.9357 48.8818C58.3242 48.7854 58.6692 48.5649 58.9164 48.2549C59.2321 47.873 59.5037 47.4565 59.7251 47.0153C60.3788 45.7005 61.0034 44.3698 61.6252 43.0448C61.8658 42.5323 62.0996 42.0733 62.3656 41.5734C62.3839 41.635 62.4025 41.6951 62.4218 41.7554C62.7005 42.9623 63.1711 44.1183 63.816 45.181C63.9381 45.4061 64.1081 45.6029 64.3144 45.7578C64.5232 45.9145 64.7642 46.0245 65.0206 46.0804C65.277 46.1363 65.5427 46.1365 65.7992 46.0811C66.0554 46.0259 66.2971 45.9158 66.506 45.7598L66.9195 45.4554L70.129 42.797L69.9392 43.9864C69.6787 45.6213 69.4202 47.2425 69.1455 48.8641C68.9658 49.5829 68.966 50.3336 69.1463 51.0521C69.2243 51.4565 69.4232 51.8288 69.7175 52.1215C70.0143 52.4166 70.3943 52.6171 70.8084 52.6971C71.2226 52.777 71.6516 52.7328 72.0397 52.5699C72.4223 52.4095 72.7477 52.1413 72.9751 51.7994C73.5043 51.1538 73.8337 50.3721 73.9242 49.5475C74.0604 48.383 74.2142 47.2026 74.3682 46.0226C74.5456 44.6625 74.7229 43.3028 74.8727 41.9691L74.8732 41.965C75.0174 40.5051 75.0871 39.0393 75.0823 37.5725C75.1138 37.109 74.9965 36.6473 74.7464 36.2526C74.4955 35.8566 74.1239 35.5488 73.6847 35.3726C73.2278 35.1684 72.7164 35.1138 72.2256 35.217C71.738 35.3195 71.2966 35.5723 70.9655 35.9384C70.3736 36.4768 69.8183 37.0529 69.3031 37.663L69.2996 37.6671C68.7372 38.3563 68.1787 39.0589 67.6237 39.757C67.2863 40.1814 66.9499 40.6048 66.6152 41.0216Z" fill="white"/>
</g>
<defs>
<clipPath id="clip0_146_4478">
<rect width="87" height="55" fill="white" transform="translate(0.5)"/>
</clipPath>
</defs>
</svg>
